<svg width="48" height="48" viewBox="0 0 48 48" fill="none" xmlns="http://www.w3.org/2000/svg">
<rect width="48" height="48" fill="#1A0B2E"/>
<path d="M34.9104 8.29227C34.9016 8.24971 34.881 8.21054 34.851 8.17934C34.8209 8.14815 34.7827 8.12622 34.7407 8.11614C31.9413 7.42701 25.473 9.88276 21.9686 13.4097C21.3436 14.034 20.7738 14.7119 20.2656 15.4357C19.185 15.3395 18.1043 15.4198 17.1833 15.8241C14.5846 16.9757 13.828 19.9805 13.6172 21.2731C13.6052 21.3439 13.6097 21.4164 13.6304 21.4851C13.651 21.5538 13.6872 21.6168 13.736 21.669C13.7849 21.7213 13.8451 21.7614 13.912 21.7862C13.9789 21.811 14.0506 21.8199 14.1214 21.8121L18.2945 21.3487C18.2975 21.6654 18.3165 21.9819 18.3514 22.2967C18.3724 22.5153 18.4688 22.7197 18.6238 22.8742L20.2398 24.4974C20.3935 24.6533 20.5963 24.7503 20.8134 24.7717C21.1243 24.8067 21.4368 24.8258 21.7497 24.829L21.2918 29.0253C21.2842 29.0966 21.2931 29.1688 21.3177 29.2361C21.3424 29.3033 21.3823 29.364 21.4341 29.4131C21.486 29.4623 21.5485 29.4988 21.6167 29.5195C21.6848 29.5403 21.7569 29.545 21.8271 29.533C23.1085 29.3261 26.0982 28.5643 27.2353 25.9478C27.6367 25.0205 27.719 23.9377 27.6262 22.8549C28.3469 22.3433 29.022 21.7694 29.6437 21.1398C33.1591 17.6181 35.5843 11.2509 34.9104 8.29227ZM26.1364 16.9386C25.8154 16.6156 25.5968 16.204 25.5081 15.7559C25.4195 15.3078 25.4648 14.8433 25.6384 14.4211C25.812 13.9989 26.1061 13.6381 26.4834 13.3842C26.8607 13.1303 27.3043 12.9948 27.7581 12.9948C28.212 12.9948 28.6556 13.1303 29.0329 13.3842C29.4102 13.6381 29.7043 13.9989 29.8779 14.4211C30.0515 14.8433 30.0968 15.3078 30.0082 15.7559C29.9195 16.204 29.7009 16.6156 29.3799 16.9386C29.167 17.1532 28.9142 17.3235 28.636 17.4397C28.3577 17.5559 28.0594 17.6156 27.7581 17.6156C27.4569 17.6156 27.1586 17.5559 26.8804 17.4397C26.6021 17.3235 26.3493 17.1532 26.1364 16.9386Z" fill="url(#paint0_linear_77_2)"/>
<path d="M20.1299 25.673C19.868 25.9372 19.4478 26.0402 18.9422 26.1283C17.806 26.3232 16.8028 25.3347 17.0069 24.1783C17.0848 23.7399 17.3152 23.1254 17.4586 22.981C17.4899 22.9501 17.5108 22.91 17.5182 22.8664C17.5256 22.8228 17.5192 22.778 17.4999 22.7383C17.4806 22.6986 17.4493 22.6661 17.4106 22.6453C17.3719 22.6245 17.3276 22.6165 17.2841 22.6225C16.6488 22.7008 16.0577 22.9908 15.605 23.4464C14.4813 24.5787 14.3752 28.7804 14.3752 28.7804C14.3752 28.7804 18.5507 28.6735 19.6744 27.5412C20.1283 27.0858 20.4167 26.4897 20.4931 25.8492C20.5108 25.648 20.2675 25.5282 20.1299 25.673Z" fill="url(#paint1_linear_77_2)"/>
<path d="M8.17227 37.3345L8.81591 37.2231C9.12432 37.2231 9.27853 37.3649 9.27853 37.6484C9.27853 37.8172 9.24165 37.9522 9.1679 38.0534C9.10085 38.1547 9.01705 38.2053 8.91648 38.2053C8.86284 38.2053 8.8025 38.2019 8.73546 38.1952C8.66841 38.1817 8.58796 38.1682 8.49409 38.1547C8.40023 38.1344 8.31642 38.1209 8.24267 38.1142C8.17563 38.1074 8.11529 38.104 8.06165 38.104C7.88063 38.104 7.73313 38.1142 7.61915 38.1344C7.50517 38.1547 7.41466 38.1986 7.34761 38.2661C7.28727 38.3268 7.24369 38.4179 7.21688 38.5395C7.19676 38.6542 7.18671 38.8095 7.18671 39.0052C7.18671 39.4035 7.23699 39.7005 7.33756 39.8963C7.44483 40.0853 7.65602 40.1798 7.97114 40.1798C8.39352 40.1798 8.76563 40.1494 9.08745 40.0887C9.38915 40.0279 9.57353 39.9976 9.64057 39.9976C9.84841 39.9976 9.95233 40.0786 9.95233 40.2406V40.3418C9.95233 40.5916 9.79813 40.7469 9.48972 40.8076C9.27517 40.8549 8.73881 40.8785 7.88063 40.8785H7.71972C7.02244 40.8785 6.56318 40.8447 6.34193 40.7772C6.11398 40.7165 6 40.6118 6 40.4633V40.3418L6.10057 39.9773C6.16761 39.7343 6.20114 39.2077 6.20114 38.3977L6.27153 36.4637C6.27153 36.0789 6.26148 35.8426 6.24136 35.7549C6.23466 35.6806 6.20784 35.5827 6.16091 35.4612C6.1408 35.4005 6.12403 35.3431 6.11063 35.2891C6.09722 35.2351 6.09051 35.1811 6.09051 35.1271C6.09051 34.8773 6.78108 34.7524 8.16222 34.7524H9.11762C9.58693 34.7524 9.82159 34.9144 9.82159 35.2385C9.82159 35.3397 9.78807 35.4174 9.72103 35.4714C9.66068 35.5254 9.58358 35.5524 9.48972 35.5524C9.43608 35.5524 9.36568 35.549 9.27853 35.5422C9.19807 35.5355 9.09415 35.5254 8.96676 35.5119C8.7187 35.4916 8.44046 35.4815 8.13205 35.4815C7.97784 35.4815 7.8471 35.5017 7.73983 35.5422C7.63256 35.576 7.54205 35.6435 7.4683 35.7448C7.40125 35.8393 7.35097 35.9675 7.31744 36.1295C7.28392 36.2915 7.26716 36.4974 7.26716 36.7472C7.26716 36.9632 7.33085 37.1151 7.45824 37.2029C7.58563 37.2906 7.82364 37.3345 8.17227 37.3345Z" fill="#00E5FF"/>
<path d="M13.6214 36.7371C13.6214 36.0958 13.3097 35.7751 12.6861 35.7751C12.4448 35.7751 12.2001 35.8798 11.952 36.089C11.6101 36.3928 11.4056 36.5447 11.3385 36.5447C11.1843 36.5447 11.1072 36.4198 11.1072 36.17C11.1072 36.0418 11.1541 35.9135 11.248 35.7853C11.3486 35.6503 11.4793 35.5287 11.6402 35.4207C11.8011 35.3127 11.9855 35.225 12.1934 35.1575C12.4079 35.09 12.6291 35.0562 12.8571 35.0562H12.9878C13.4505 35.0562 13.8293 35.1946 14.1243 35.4714C14.4193 35.7481 14.5668 36.1228 14.5668 36.5953C14.5668 37.2299 14.2449 37.8408 13.6013 38.4281C13.5074 38.5158 13.4102 38.607 13.3097 38.7015C13.2091 38.7892 13.1052 38.8804 12.9979 38.9749C12.7834 39.1639 12.6057 39.3326 12.4649 39.4811C12.3241 39.6297 12.2537 39.7714 12.2537 39.9064C12.2537 40.0347 12.5018 40.0988 12.9979 40.0988C13.1387 40.0988 13.2694 40.0954 13.3901 40.0887C13.5175 40.0819 13.6382 40.0718 13.7522 40.0583L14.084 40.0077C14.198 39.9807 14.2952 39.9672 14.3757 39.9672C14.5902 39.9672 14.6975 40.0752 14.6975 40.2912C14.6975 40.5072 14.6103 40.6557 14.436 40.7367C14.2684 40.8177 13.9466 40.8582 13.4706 40.8582H12.5252C11.7609 40.8582 11.3285 40.8346 11.2279 40.7874C11.1072 40.7469 11.0469 40.6118 11.0469 40.3823C11.0469 40.1596 11.1575 39.9064 11.3788 39.6229C11.6067 39.3394 11.9319 39.0052 12.3543 38.6205C12.7699 38.2357 13.0851 37.8982 13.2996 37.6079C13.5142 37.3176 13.6214 37.0273 13.6214 36.7371Z" fill="#00E5FF"/>
<path d="M17.8718 34.7626C18.5221 34.7626 19.0115 34.8908 19.3401 35.1473C19.6686 35.4039 19.8328 35.7583 19.8328 36.2105C19.8328 36.6696 19.6786 37.0442 19.3702 37.3345C19.2093 37.4965 19.1289 37.5843 19.1289 37.5978C19.1289 37.6113 19.1624 37.6383 19.2294 37.6788L19.3099 37.7193C19.5781 37.861 19.7893 38.05 19.9435 38.2863C20.1044 38.5158 20.1848 38.7858 20.1848 39.0964V39.2078C20.1848 39.4913 20.1178 39.7478 19.9837 39.9773C19.863 40.1866 19.7122 40.352 19.5311 40.4735C19.3568 40.595 19.1657 40.6895 18.9579 40.757C18.7568 40.8177 18.5456 40.8582 18.3243 40.8785C18.1098 40.892 17.9019 40.8987 17.7008 40.8987H17.1879C16.618 40.8987 16.256 40.8785 16.1018 40.838C15.961 40.7975 15.8906 40.7165 15.8906 40.595C15.8906 40.5545 15.9207 40.4532 15.9811 40.2912C16.0414 40.1359 16.0716 39.8153 16.0716 39.3293V36.4131C16.0716 35.927 16.0414 35.5929 15.9811 35.4106C15.914 35.2486 15.8805 35.1507 15.8805 35.117V35.0562C15.8805 34.9549 15.9476 34.8841 16.0817 34.8436C16.2359 34.8098 16.4873 34.7929 16.8359 34.7929L16.9365 34.7828H17.1477L17.8718 34.7626ZM17.0069 39.6229L17.0169 39.7849C17.0169 39.7984 17.0169 39.8187 17.0169 39.8457C17.0169 39.8997 17.0203 39.9604 17.027 40.0279C17.027 40.1764 17.2181 40.2507 17.6002 40.2507H17.9321C18.3545 40.2507 18.6797 40.1528 18.9076 39.9571C19.1356 39.7613 19.2496 39.5014 19.2496 39.1774V38.9951C19.2496 38.6576 19.1322 38.3943 18.8976 38.2053C18.6629 38.0163 18.3578 37.9218 17.9824 37.9218H17.5801C17.3589 37.9218 17.2114 37.9454 17.1376 37.9927C17.0639 38.0332 17.027 38.1243 17.027 38.2661L17.0069 38.4787V39.6229ZM17.0169 37.0408C17.0169 37.2164 17.0404 37.3244 17.0873 37.3649C17.141 37.3986 17.2549 37.4155 17.4293 37.4155H17.5399L17.5701 37.4054H17.7109L17.9221 37.3851C18.2036 37.3851 18.4417 37.2906 18.6361 37.1016C18.8305 36.9058 18.9277 36.6561 18.9277 36.3523V36.2713C18.9277 35.9608 18.8238 35.7279 18.616 35.5726C18.4148 35.4174 18.1332 35.3397 17.7712 35.3397H17.6002C17.2918 35.3397 17.1209 35.3802 17.0873 35.4612C17.0404 35.5355 17.0169 35.8663 17.0169 36.4536V37.0408Z" fill="#00E5FF"/>
<path d="M26.3697 37.618V37.9218C26.3697 38.1243 26.3496 38.3606 26.3094 38.6306C26.2758 38.8939 26.2021 39.1605 26.0881 39.4305C25.9808 39.6938 25.8233 39.9436 25.6154 40.1798C25.4143 40.4161 25.1495 40.6085 24.821 40.757C24.4589 40.919 24.0969 41 23.7348 41H23.6443C23.2286 41 22.8666 40.919 22.5582 40.757C22.2498 40.595 21.9916 40.379 21.7838 40.1089C21.576 39.8322 21.4184 39.5183 21.3111 39.1672C21.2106 38.8095 21.1603 38.4416 21.1603 38.0635V37.861C21.1603 37.456 21.2106 37.0645 21.3111 36.6864C21.4117 36.3084 21.5659 35.9743 21.7737 35.684C21.9883 35.387 22.2565 35.1507 22.5783 34.9752C22.9068 34.7929 23.2923 34.7018 23.7348 34.7018H23.936C24.231 34.7018 24.5394 34.7727 24.8612 34.9144C25.1227 35.0292 25.3473 35.1845 25.535 35.3802C25.7294 35.5692 25.887 35.7853 26.0077 36.0283C26.135 36.2713 26.2256 36.5312 26.2792 36.808C26.3395 37.078 26.3697 37.348 26.3697 37.618ZM22.1056 37.7699V37.9927C22.1056 38.6407 22.2296 39.1706 22.4777 39.5824C22.6185 39.8254 22.7962 40.0144 23.0107 40.1494C23.2253 40.2777 23.4231 40.3418 23.6041 40.3418H23.8052C24.1002 40.3418 24.3449 40.2608 24.5394 40.0988C24.7338 39.9301 24.888 39.7242 25.002 39.4811C25.1227 39.2314 25.2065 38.9647 25.2534 38.6812C25.3003 38.3977 25.3238 38.1378 25.3238 37.9015V37.7193C25.3238 37.564 25.3137 37.3851 25.2936 37.1826C25.2735 36.9801 25.2299 36.7776 25.1629 36.5751C25.1025 36.3658 25.0154 36.17 24.9014 35.9878C24.7874 35.7988 24.6399 35.6469 24.4589 35.5321C24.2444 35.3971 24.0265 35.3296 23.8052 35.3296H23.6644C23.47 35.3296 23.2689 35.387 23.061 35.5017C22.8733 35.6097 22.7191 35.7481 22.5984 35.9169C22.4777 36.0857 22.3805 36.2747 22.3067 36.4839C22.233 36.6864 22.1794 36.8991 22.1458 37.1219C22.119 37.3446 22.1056 37.5606 22.1056 37.7699Z" fill="#00E5FF"/>
<path d="M32.5668 37.618V37.9218C32.5668 38.1243 32.5467 38.3606 32.5065 38.6306C32.473 38.8939 32.3992 39.1605 32.2852 39.4305C32.178 39.6938 32.0204 39.9436 31.8126 40.1798C31.6114 40.4161 31.3466 40.6085 31.0181 40.757C30.656 40.919 30.294 41 29.9319 41H29.8414C29.4257 41 29.0637 40.919 28.7553 40.757C28.4469 40.595 28.1888 40.379 27.9809 40.1089C27.7731 39.8322 27.6155 39.5183 27.5082 39.1672C27.4077 38.8095 27.3574 38.4416 27.3574 38.0635V37.861C27.3574 37.456 27.4077 37.0645 27.5082 36.6864C27.6088 36.3084 27.763 35.9743 27.9709 35.684C28.1854 35.387 28.4536 35.1507 28.7754 34.9752C29.1039 34.7929 29.4894 34.7018 29.9319 34.7018H30.1331C30.4281 34.7018 30.7365 34.7727 31.0583 34.9144C31.3198 35.0292 31.5444 35.1845 31.7321 35.3802C31.9265 35.5692 32.0841 35.7853 32.2048 36.0283C32.3322 36.2713 32.4227 36.5312 32.4763 36.808C32.5367 37.078 32.5668 37.348 32.5668 37.618ZM28.3027 37.7699V37.9927C28.3027 38.6407 28.4268 39.1706 28.6748 39.5824C28.8156 39.8254 28.9933 40.0144 29.2079 40.1494C29.4224 40.2777 29.6202 40.3418 29.8012 40.3418H30.0023C30.2973 40.3418 30.5421 40.2608 30.7365 40.0988C30.9309 39.9301 31.0851 39.7242 31.1991 39.4811C31.3198 39.2314 31.4036 38.9647 31.4505 38.6812C31.4975 38.3977 31.5209 38.1378 31.5209 37.9015V37.7193C31.5209 37.564 31.5109 37.3851 31.4907 37.1826C31.4706 36.9801 31.4271 36.7776 31.36 36.5751C31.2997 36.3658 31.2125 36.17 31.0985 35.9878C30.9846 35.7988 30.8371 35.6469 30.656 35.5321C30.4415 35.3971 30.2236 35.3296 30.0023 35.3296H29.8615C29.6671 35.3296 29.466 35.387 29.2581 35.5017C29.0704 35.6097 28.9162 35.7481 28.7955 35.9169C28.6748 36.0857 28.5776 36.2747 28.5039 36.4839C28.4301 36.6864 28.3765 36.8991 28.343 37.1219C28.3161 37.3446 28.3027 37.5606 28.3027 37.7699Z" fill="#00E5FF"/>
<path d="M35.5759 40.9392C35.4419 40.9392 35.2977 40.9291 35.1435 40.9089C34.9893 40.8886 34.8384 40.865 34.6909 40.838C34.5501 40.8042 34.4194 40.7705 34.2987 40.7367C34.178 40.6962 34.0842 40.6557 34.0171 40.6152C33.8897 40.541 33.7892 40.433 33.7154 40.2912C33.6417 40.1494 33.6048 40.0111 33.6048 39.876C33.6048 39.7478 33.635 39.6499 33.6953 39.5824C33.7557 39.5081 33.8227 39.471 33.8965 39.471C33.9568 39.471 34.0909 39.5554 34.2987 39.7242C34.4932 39.8929 34.6876 40.0178 34.882 40.0988C35.0832 40.1798 35.3312 40.2203 35.6262 40.2203C35.9279 40.2203 36.1693 40.1427 36.3503 39.9874C36.5313 39.8322 36.6219 39.6094 36.6219 39.3191C36.6219 39.1774 36.595 39.0559 36.5414 38.9546C36.4945 38.8534 36.414 38.7588 36.3 38.6711C36.1861 38.5833 36.0386 38.4922 35.8575 38.3977C35.6832 38.3032 35.4653 38.1952 35.2038 38.0737C34.996 37.9724 34.8016 37.8712 34.6205 37.7699C34.4395 37.6619 34.2786 37.5404 34.1378 37.4054C34.0037 37.2636 33.8965 37.1016 33.816 36.9193C33.7422 36.7303 33.7054 36.5076 33.7054 36.251C33.7054 35.792 33.8864 35.4207 34.2484 35.1372C34.6105 34.8469 35.1368 34.7018 35.8274 34.7018C36.2498 34.7018 36.6017 34.7626 36.8833 34.8841C37.0174 34.9448 37.128 35.0461 37.2152 35.1878C37.3024 35.3229 37.3459 35.4477 37.3459 35.5625C37.3459 35.846 37.2521 35.9878 37.0644 35.9878C37.0174 35.9878 36.8431 35.8865 36.5414 35.684C36.233 35.4815 35.9279 35.3802 35.6262 35.3802C35.3245 35.3802 35.0798 35.4511 34.8921 35.5929C34.7044 35.7346 34.6105 35.9338 34.6105 36.1903C34.6105 36.3185 34.6306 36.4299 34.6708 36.5244C34.7178 36.6189 34.7915 36.7101 34.8921 36.7978C34.9994 36.8856 35.1401 36.9767 35.3145 37.0712C35.4955 37.1657 35.7201 37.2737 35.9883 37.3952C36.2028 37.4898 36.404 37.591 36.5917 37.699C36.7861 37.807 36.9571 37.9319 37.1046 38.0737C37.2521 38.2154 37.3694 38.3842 37.4566 38.58C37.5437 38.769 37.5873 38.9951 37.5873 39.2584C37.5873 39.3799 37.5739 39.498 37.5471 39.6128C37.5203 39.7208 37.4834 39.8288 37.4365 39.9368C37.2688 40.2811 37.0107 40.5342 36.6621 40.6962C36.3201 40.8582 35.9682 40.9392 35.6061 40.9392H35.5759Z" fill="#00E5FF"/>
<path d="M43 35.279C43 35.549 42.9162 35.684 42.7486 35.684C42.6748 35.684 42.5541 35.6604 42.3865 35.6131C42.2189 35.5659 42.0446 35.5422 41.8636 35.5422C41.4747 35.5422 41.2468 35.6874 41.1797 35.9776C41.1261 36.2342 41.0993 36.9531 41.0993 38.1344L41.0791 38.985V39.4204C41.0791 39.5959 41.0892 39.7275 41.1093 39.8153C41.1361 39.8963 41.173 40.0009 41.2199 40.1292C41.2602 40.2507 41.2803 40.3486 41.2803 40.4228C41.2803 40.5713 41.2166 40.6861 41.0892 40.7671C40.9685 40.8414 40.8009 40.8785 40.5864 40.8785H40.4757C40.3215 40.8785 40.1807 40.8414 40.0534 40.7671C39.9327 40.6861 39.8723 40.5882 39.8723 40.4735C39.8723 40.3452 39.8891 40.2406 39.9226 40.1596L39.993 39.9874C40.0198 39.9402 40.0534 39.8457 40.0936 39.7039C40.1271 39.5689 40.1439 39.336 40.1439 39.0052V38.8837C40.1506 38.8365 40.1539 38.796 40.1539 38.7622C40.1539 38.7217 40.1539 38.6778 40.1539 38.6306V38.3876L40.174 37.4054C40.174 36.5953 40.1472 36.0924 40.0936 35.8966C40.0332 35.6671 39.8556 35.5524 39.5606 35.5524C39.393 35.5524 39.1918 35.5929 38.9572 35.6739C38.7158 35.7481 38.5716 35.7853 38.5247 35.7853C38.3839 35.7853 38.3135 35.6367 38.3135 35.3397C38.3135 35.0427 38.4409 34.8773 38.6957 34.8436C39.0376 34.7828 39.8656 34.7524 41.1797 34.7524H42.3765C42.6044 34.7524 42.7653 34.7963 42.8592 34.8841C42.9531 34.9718 43 35.1035 43 35.279Z" fill="#00E5FF"/>
<defs>
<linearGradient id="paint0_linear_77_2" x1="24.5" y1="8" x2="24.5" y2="41" gradientUnits="userSpaceOnUse">
<stop offset="0.134615" stop-color="#7B2CBF"/>
<stop offset="1" stop-color="#00E5FF"/>
</linearGradient>
<linearGradient id="paint1_linear_77_2" x1="24.5" y1="8" x2="24.5" y2="41" gradientUnits="userSpaceOnUse">
<stop offset="0.134615" stop-color="#7B2CBF"/>
<stop offset="1" stop-color="#00E5FF"/>
</linearGradient>
</defs>
</svg>
