<svg width="73" height="73" viewBox="0 0 73 73" fill="none" xmlns="http://www.w3.org/2000/svg">
<path d="M68.101 5.45505C68.075 5.32895 68.0135 5.21288 67.9239 5.12046C67.8342 5.02804 67.7201 4.96308 67.5949 4.93321C59.2441 2.89149 39.949 10.1673 29.4951 20.6168C27.6306 22.4663 25.9308 24.4747 24.4151 26.6193C21.1914 26.3342 17.9677 26.5723 15.2202 27.77C7.46824 31.1818 5.21123 40.0844 4.58246 43.9141C4.5468 44.1237 4.56025 44.3387 4.62176 44.5422C4.68327 44.7458 4.79117 44.9323 4.93696 45.087C5.08275 45.2418 5.26246 45.3606 5.46196 45.4342C5.66145 45.5078 5.87529 45.534 6.08666 45.5109L18.5352 44.1379C18.544 45.0765 18.6007 46.0139 18.7048 46.9467C18.7675 47.5945 19.055 48.1998 19.5175 48.6576L24.3381 53.4668C24.7964 53.9286 25.4015 54.216 26.049 54.2795C26.9766 54.3831 27.9088 54.4398 28.8421 54.4492L27.4762 66.882C27.4534 67.0933 27.4799 67.307 27.5536 67.5063C27.6272 67.7057 27.7461 67.8853 27.9008 68.031C28.0555 68.1767 28.2418 68.2846 28.4452 68.3463C28.6486 68.4079 28.8635 68.4215 29.0731 68.3862C32.8956 67.7731 41.8139 65.5161 45.2058 57.7641C46.4035 55.0166 46.6487 51.8086 46.3721 48.6006C48.5219 47.0847 50.5356 45.3845 52.3903 43.5191C62.877 33.0853 70.1114 14.2208 68.101 5.45505ZM41.928 31.0721C40.9704 30.1151 40.3181 28.8957 40.0537 27.568C39.7893 26.2403 39.9245 24.864 40.4424 23.6133C40.9603 22.3625 41.8374 21.2934 42.963 20.5412C44.0885 19.789 45.4119 19.3875 46.7656 19.3875C48.1194 19.3875 49.4427 19.789 50.5683 20.5412C51.6938 21.2934 52.571 22.3625 53.0889 23.6133C53.6067 24.864 53.742 26.2403 53.4775 27.568C53.2131 28.8957 52.5609 30.1151 51.6033 31.0721C50.9683 31.7079 50.2142 32.2124 49.3841 32.5566C48.5541 32.9008 47.6642 33.0779 46.7656 33.0779C45.867 33.0779 44.9772 32.9008 44.1471 32.5566C43.317 32.2124 42.5629 31.7079 41.928 31.0721Z" fill="#7B2CBF"/>
<path d="M24.0102 56.95C23.2288 57.7327 21.9756 58.0379 20.4671 58.2988C17.078 58.8762 14.0853 55.9477 14.6941 52.5215C14.9265 51.2226 15.6137 49.4019 16.0415 48.9742C16.135 48.8825 16.1972 48.7637 16.2193 48.6346C16.2414 48.5055 16.2223 48.3728 16.1647 48.2552C16.1071 48.1376 16.0139 48.0411 15.8984 47.9795C15.7828 47.9179 15.6508 47.8943 15.5211 47.912C13.6258 48.1438 11.8627 49.0031 10.5123 50.3529C7.16027 53.7078 6.84375 66.1563 6.84375 66.1563C6.84375 66.1563 19.2994 65.8397 22.6514 62.4849C24.0053 61.1355 24.8656 59.3697 25.0938 57.4718C25.1465 56.8758 24.4208 56.5208 24.0102 56.95Z" fill="#7B2CBF"/>
</svg>
