<svg xmlns="http://www.w3.org/2000/svg" viewBox="0 0 64 64" role="img" aria-label="E2Boost">
  <defs>
    <linearGradient id="bg" x1="10" y1="6" x2="56" y2="60" gradientUnits="userSpaceOnUse">
      <stop offset="0" stop-color="#1A0B2E"/>
      <stop offset="0.55" stop-color="#7B2CBF"/>
      <stop offset="1" stop-color="#00E5FF"/>
    </linearGradient>
    <linearGradient id="bolt" x1="24" y1="12" x2="42" y2="52" gradientUnits="userSpaceOnUse">
      <stop offset="0" stop-color="#F8F9FA"/>
      <stop offset="1" stop-color="#00E5FF"/>
    </linearGradient>
    <filter id="glow" x="-50%" y="-50%" width="200%" height="200%">
      <feGaussianBlur stdDeviation="2.2" result="blur"/>
      <feMerge>
        <feMergeNode in="blur"/>
        <feMergeNode in="SourceGraphic"/>
      </feMerge>
    </filter>
  </defs>
  <rect width="64" height="64" rx="16" fill="#0B0415"/>
  <rect x="4" y="4" width="56" height="56" rx="14" fill="url(#bg)" opacity="0.92"/>
  <path d="M15 21.5C15 17.9 17.9 15 21.5 15H37v7H23.5c-.8 0-1.5.7-1.5 1.5V28h13v6H22v4.5c0 .8.7 1.5 1.5 1.5H38v7H21.5C17.9 47 15 44.1 15 40.5v-19Z" fill="#F8F9FA"/>
  <path d="M43.5 14 30 34h9l-5.5 16L49 28h-9l3.5-14Z" fill="url(#bolt)" filter="url(#glow)"/>
  <path d="M8 48c10 7.5 34 9 48-6" fill="none" stroke="#00E5FF" stroke-width="2" stroke-linecap="round" opacity="0.65"/>
</svg>
